<svg id="Слой_1" data-name="Слой 1" xmlns="http://www.w3.org/2000/svg" width="90.74" height="121.1" viewBox="0 0 90.74 121.1">
  <defs>
    <style>
      .cls-1, .cls-7 {
        fill: #fff;
      }

      .cls-1, .cls-5, .cls-6 {
        stroke: #848f99;
      }

      .cls-1, .cls-2, .cls-3, .cls-4, .cls-5, .cls-6 {
        stroke-linecap: round;
        stroke-linejoin: round;
        stroke-width: 1.13px;
      }

      .cls-1, .cls-10, .cls-6, .cls-7, .cls-8, .cls-9 {
        fill-rule: evenodd;
      }

      .cls-2, .cls-3, .cls-4, .cls-5 {
        fill: none;
      }

      .cls-2 {
        stroke: #bfcbd6;
      }

      .cls-3 {
        stroke: #f15c22;
      }

      .cls-4 {
        stroke: #b4bcc8;
      }

      .cls-6 {
        fill: #dfe9f2;
      }

      .cls-8 {
        fill: #ff6259;
      }

      .cls-9 {
        fill: #ffbd2d;
      }

      .cls-10 {
        fill: #2bca41;
      }
    </style>
  </defs>
  <title>Blog Post</title>
  <g>
    <path class="cls-1" d="M350.17,349.75v102.6a4.18,4.18,0,0,1-4.17,4.17H264.74a4.18,4.18,0,0,1-4.17-4.17V349.75h89.61Z" transform="translate(-260 -336)"/>
    <path class="cls-2" d="M283.9,429.63h32m-32,3.43h35.8" transform="translate(-260 -336)"/>
    <path class="cls-3" d="M269.34,435.93h10.21a7.78,7.78,0,0,0-3.73-3.44c3-2.86,1.06-6.23-1.63-6.15-2.33.17-3.72,3.87-1,6.15a8,8,0,0,0-3.8,3.44h0Zm7.46-4.66a2.14,2.14,0,0,0,1.84.93m-6.81-.93a2.14,2.14,0,0,1-1.84.93" transform="translate(-260 -336)"/>
    <path class="cls-2" d="M325,439.53H293M325,443h-35.8" transform="translate(-260 -336)"/>
    <path class="cls-3" d="M331.3,446.4h10.21a7.78,7.78,0,0,0-3.73-3.44c3-2.86,1.06-6.23-1.63-6.15-2.33.17-3.72,3.87-1,6.15a8,8,0,0,0-3.8,3.44h0ZM271,359.88H338.1a2.27,2.27,0,0,1,2.27,2.27v24.3a2.27,2.27,0,0,1-2.27,2.27H271a2.27,2.27,0,0,1-2.27-2.27v-24.3a2.27,2.27,0,0,1,2.27-2.27h0Zm34.26,6.65a1.87,1.87,0,1,1-1.87,1.87,1.87,1.87,0,0,1,1.87-1.87h0Zm-8.67,14.27h21.59l-7.3-10.21-5.15,5.19-3-3.26-6.09,8.28h0Zm-27.86,13.8h72.7m-72.7,4.15H326.8" transform="translate(-260 -336)"/>
    <path class="cls-4" d="M268.72,402.9h65.95m-65.95,4.15H341.2m-72.48,4.15h47.39m-47.39,4.15H342" transform="translate(-260 -336)"/>
    <line class="cls-5" x1="0.57" y1="85.99" x2="90.17" y2="85.99"/>
    <path class="cls-6" d="M264.74,336.57H346a4.18,4.18,0,0,1,4.17,4.17v8.74H260.57v-8.74a4.18,4.18,0,0,1,4.17-4.17h0Z" transform="translate(-260 -336)"/>
    <path class="cls-7" d="M289.47,340.4h52.1a0.81,0.81,0,0,1,.81.81v3.62a0.81,0.81,0,0,1-.81.81h-52.1a0.81,0.81,0,0,1-.81-0.81v-3.62a0.81,0.81,0,0,1,.81-0.81h0Z" transform="translate(-260 -336)"/>
    <path class="cls-8" d="M269.16,341.34a1.69,1.69,0,1,1-1.69,1.69,1.69,1.69,0,0,1,1.69-1.69h0Z" transform="translate(-260 -336)"/>
    <path class="cls-9" d="M274.06,341.34a1.69,1.69,0,1,1-1.69,1.69,1.69,1.69,0,0,1,1.69-1.69h0Z" transform="translate(-260 -336)"/>
    <path class="cls-10" d="M279,341.34a1.69,1.69,0,1,1-1.69,1.69,1.69,1.69,0,0,1,1.69-1.69h0Z" transform="translate(-260 -336)"/>
  </g>
</svg>
