<svg xmlns="http://www.w3.org/2000/svg" width="120.86" height="161.397" viewBox="0 0 120.86 161.397">
  <g id="Webinar_Replay" data-name="Webinar Replay" transform="translate(-0.005 -0.005)">
    <path id="Path_958" data-name="Path 958" stroke="#848f99" d="M380.287,349.75V486.836a5.585,5.585,0,0,1-5.572,5.572H266.142a5.585,5.585,0,0,1-5.572-5.572V349.75H380.3Z" fill="#fff" transform="translate(-260 -331.57)" stroke-linecap="round" stroke-linejoin="round" stroke-width="1.13" fill-rule="evenodd"/>
    <line id="Line_62" data-name="Line 62" x2="96.348" transform="translate(12.261 93.845)" fill="none" stroke="#f15c22" stroke-linecap="round" stroke-linejoin="round" stroke-width="1.13"/>
    <path id="Path_959" data-name="Path 959" d="M271.64,411h90.135m-77.5,5.344h64.789m-47.82,5.745h30.838" transform="translate(-256.279 -310.982)" fill="none" stroke="#bfcbd6" stroke-linecap="round" stroke-linejoin="round" stroke-width="1.13"/>
    <path id="Path_960" data-name="Path 960" d="M271.56,425.47H364.1a3.26,3.26,0,0,1,3.26,3.26v8.337a3.26,3.26,0,0,1-3.26,3.26H271.56a3.26,3.26,0,0,1-3.26-3.26V428.73a3.26,3.26,0,0,1,3.26-3.26Z" transform="translate(-257.402 -306.119)" fill="#f15c22" fill-rule="evenodd"/>
    <path id="Path_961" data-name="Path 961" d="M293.32,428.907h2.245a6.682,6.682,0,0,1,1.015,0,1.525,1.525,0,0,1,.6.24,1.483,1.483,0,0,1,.441.481,1.366,1.366,0,0,1-.628,1.911,1.523,1.523,0,0,1,.8.521,1.336,1.336,0,0,1,.281.868,1.71,1.71,0,0,1-.187.762,1.537,1.537,0,0,1-.494.588,1.656,1.656,0,0,1-.775.267h-3.287V428.8h0Zm1.162.949v1.336h1.6a.762.762,0,0,0,.468-.2.6.6,0,0,0,.174-.441.628.628,0,0,0-.147-.428.655.655,0,0,0-.441-.2h-1.657Zm0,2.271v1.536h1.082a5.341,5.341,0,0,0,.8,0,.721.721,0,0,0,.414-.227.708.708,0,0,0,.16-.494.748.748,0,0,0-.12-.441.708.708,0,0,0-.361-.267,4.007,4.007,0,0,0-1.029-.08H294.5Z" transform="translate(-248.992 -304.999)" fill="#fff"/>
    <path id="Path_962" data-name="Path 962" d="M39.311,98.625V96.207L37.2,92.88h1.363l1.363,2.271,1.323-2.271h1.336l-2.111,3.34v2.405Z" transform="translate(12.312 31.027)" fill="#fff"/>
    <path id="Path_963" data-name="Path 963" d="M43.21,98.625V92.88h1.136L46.7,96.728V92.88H47.78v5.745H46.617l-2.325-3.768v3.768Z" transform="translate(14.332 31.027)" fill="#fff"/>
    <path id="Path_964" data-name="Path 964" d="M307.371,431.817a3.675,3.675,0,0,1,.267-1.47,2.671,2.671,0,0,1,.534-.788,2.257,2.257,0,0,1,.748-.521,3.167,3.167,0,0,1,1.243-.227,2.672,2.672,0,0,1,2.031.788,3.527,3.527,0,0,1,0,4.369,3.01,3.01,0,0,1-4.062,0,2.98,2.98,0,0,1-.762-2.151h0Zm1.189,0a2.151,2.151,0,0,0,.454,1.483,1.55,1.55,0,0,0,2.285,0,2.2,2.2,0,0,0,.441-1.5,2.151,2.151,0,0,0-.428-1.47,1.6,1.6,0,0,0-2.311,0,2.178,2.178,0,0,0-.441,1.483h0Z" transform="translate(-244.271 -304.997)" fill="#fff"/>
    <path id="Path_965" data-name="Path 965" d="M53.139,98.625,51.79,92.88h1.2l.855,3.942L54.89,92.88h1.376l1,4.022.882-4.022h1.162l-1.376,5.745H56.694l-1.136-4.289-1.136,4.289Z" transform="translate(17.216 31.027)" fill="#fff"/>
    <path id="Path_966" data-name="Path 966" d="M272.583,369.69H362.25a3.033,3.033,0,0,1,3.033,3.033v34.111a3.033,3.033,0,0,1-3.033,3.033H272.583a3.033,3.033,0,0,1-3.033-3.033V372.776a3.033,3.033,0,0,1,3.033-3.033h0Zm40.738,11.891,8.19,8.19-8.19,8.19V381.581Z" transform="translate(-256.982 -324.868)" fill="none" stroke="#f15c22" stroke-linecap="round" stroke-linejoin="round" stroke-width="1.13"/>
    <path id="Path_967" data-name="Path 967" stroke="#848f99" d="M266.142,336.57H374.715a5.585,5.585,0,0,1,5.572,5.572v11.678H260.57V342.142a5.585,5.585,0,0,1,5.572-5.572h0Z" fill="#dfe9f2" transform="translate(-260 -336)" stroke-linecap="round" stroke-linejoin="round" stroke-width="1.13" fill-rule="evenodd"/>
    <path id="Path_968" data-name="Path 968" d="M289.742,340.4h69.612a1.082,1.082,0,0,1,1.082,1.082v4.837a1.082,1.082,0,0,1-1.082,1.082H289.742a1.082,1.082,0,0,1-1.082-1.082v-4.837a1.082,1.082,0,0,1,1.082-1.082Z" transform="translate(-250.558 -334.713)" fill="#fff" fill-rule="evenodd"/>
    <path id="Path_969" data-name="Path 969" d="M269.728,341.34a2.258,2.258,0,1,1-2.258,2.258,2.258,2.258,0,0,1,2.258-2.258Z" transform="translate(-257.681 -334.397)" fill="#ff6259" fill-rule="evenodd"/>
    <path id="Path_970" data-name="Path 970" d="M274.628,341.34a2.258,2.258,0,1,1-2.258,2.258,2.258,2.258,0,0,1,2.258-2.258Z" transform="translate(-256.034 -334.397)" fill="#ffbd2d" fill-rule="evenodd"/>
    <path id="Path_971" data-name="Path 971" d="M279.568,341.34a2.258,2.258,0,1,1-2.258,2.258,2.258,2.258,0,0,1,2.258-2.258Z" transform="translate(-254.373 -334.397)" fill="#2bca41" fill-rule="evenodd"/>
  </g>
</svg>
